<svg xmlns="http://www.w3.org/2000/svg"
     width="512"
     height="512"
     enableBackground="new 0 0 512 512"
     viewBox="0 0 512 512">
    <path fill="#F9A826" d="M470.688 13.85H50.459C27.599 13.85 9 32.448 9 55.309v275.535c0 22.861 18.599 41.459 41.459 41.459h136.349c-.276 26.799-6.781 53.914-14.036 69.896h-28.965c-15.425 0-27.975 12.55-27.975 27.976s12.55 27.976 27.975 27.976h224.391c15.425 0 27.975-12.55 27.975-27.976 0-15.425-12.55-27.975-27.975-27.975H339.16c-7.594-16.271-14.514-43.482-15.027-69.896h137.408c22.86 0 41.459-18.599 41.459-41.459V46.168c0-17.82-14.495-32.318-32.312-32.318zm-420.229 14h420.229c10.098 0 18.312 8.218 18.312 18.318v243.59H23V55.309C23 40.167 35.318 27.85 50.459 27.85zm331.714 442.324c0 7.707-6.269 13.976-13.975 13.976H143.807c-7.706 0-13.975-6.27-13.975-13.976s6.269-13.976 13.975-13.976h224.391c7.706.001 13.975 6.27 13.975 13.976zm-58.292-27.975H187.979c7.671-19.511 12.574-45.969 12.825-69.896h109.331c.447 23.635 5.7 50.108 13.746 69.896zm137.66-83.896H50.459c-15.141 0-27.459-12.319-27.459-27.46v-27.085h466v27.085c0 15.141-12.318 27.46-27.459 27.46zM281.945 331.03a7 7 0 01-7 7h-37.89a7 7 0 110-14h37.89a7 7 0 017 7zM140.669 188.513h230.662a7 7 0 007-7v-45.418a7 7 0 00-7-7H140.669a7 7 0 00-7 7v45.418a7 7 0 007 7zm223.662-14h-31.418v-31.418h31.418zm-216.662-31.418h171.244v31.418H147.669z" data-original="url(#SVGID_1_)"></path>
</svg>